<svg xmlns="http://www.w3.org/2000/svg" viewBox="0 0 64 64">
  <rect width="64" height="64" rx="16" fill="#24141f"/>
  <path d="M31.8 17c-5.1 0-12.2 3.5-13.8 11.4-1.7 8.3 4 22.5 13.8 26.1 9.8-3.6 15.5-17.8 13.8-26.1C44 20.5 36.9 17 31.8 17Z" fill="#d95887"/>
  <path d="M31.8 17c-1.7-6.4 2.6-10.3 8.6-10.8-1 5.3-4.3 8.5-8.6 10.8Z" fill="#75a957"/>
  <path d="M31 17.4c-4.9-4.4-10.1-4.3-14.3-1.3 4.4 3.4 9.1 3.8 14.3 1.3Zm2.2 0c4.9-4.4 10.1-4.3 14.3-1.3-4.4 3.4-9.1 3.8-14.3 1.3Z" fill="#75a957"/>
  <g fill="#ffd9e7"><ellipse cx="25" cy="30" rx="1.7" ry="2.4"/><ellipse cx="34" cy="27" rx="1.7" ry="2.4"/><ellipse cx="39" cy="35" rx="1.7" ry="2.4"/><ellipse cx="29" cy="40" rx="1.7" ry="2.4"/><ellipse cx="35" cy="46" rx="1.7" ry="2.4"/><ellipse cx="23" cy="37" rx="1.7" ry="2.4"/></g>
</svg>
